<?xml version="1.0" encoding="UTF-8"?>
<svg xmlns="http://www.w3.org/2000/svg" version="1.1" viewBox="0 0 282.8 217.1">
  <defs>
    <style>
      .cls-1 {
        stroke-miterlimit: 10;
      }

      .cls-1, .cls-2, .cls-3 {
        stroke: #fff;
        stroke-linecap: round;
      }

      .cls-1, .cls-3 {
        fill: none;
        stroke-width: 14px;
      }

      .cls-2 {
        fill: #fff;
        stroke-width: 10px;
      }

      .cls-2, .cls-3 {
        stroke-linejoin: round;
      }
    </style>
  </defs>
  <!-- Generator: Adobe Illustrator 28.7.3, SVG Export Plug-In . SVG Version: 1.2.0 Build 164)  -->
  <g>
    <g id="Capa_2">
      <g>
        <path class="cls-3" d="M82.9,22.5c7.5-6.1,16.8-10,26.1-12.4"/>
        <path class="cls-3" d="M108.3,201.6c-24.4-9.1-41.4-30.1-48.4-54.1,0-1-1-2-2-2-18,1-36-8-45-24-1-2-2-5-3-7-7-18-1-38,14-50s23-10,35-7c6-13,13-26,24-35"/>
        <path class="cls-3" d="M210,57.5c26.2-7.4,52.4,4.3,61.9,25,6.6,14.5,4.6,32.4-5,46-14.3,20.1-38,20-40,20-6,29-32,48-59.2,56.9"/>
        <path class="cls-3" d="M164.7,13.2c20.4,8.2,36.3,24.4,45.3,44.2"/>
        <path class="cls-1" d="M201.9,77.2c-18-14.7-43-20.7-66-14.7"/>
        <path class="cls-1" d="M193.9,193.5c26-16,39-50,31.2-79.6"/>
        <path class="cls-1" d="M77.5,127.5c9,12.9,19.3,18.6,24.4,20.9,10.2,4.6,19.9,5.4,29.1,6,7.4.5,13.6.3,17.9,0"/>
        <path class="cls-1" d="M59.9,55.5c-2.2,9.8-2.6,20.1-1.3,30.1"/>
        <polygon class="cls-2" points="135.9 62.5 135.9 50.7 116.9 65.5 135.9 79.1 135.9 62.5"/>
        <polygon class="cls-2" points="148.9 157.3 148.9 169.1 167.9 154.3 148.9 140.7 148.9 157.3"/>
        <path class="cls-3" d="M123.9,207s12.6,5,26.1,2.2"/>
        <path class="cls-3" d="M145.9,9.7s-9.2-4.7-19.1-1.6"/>
        <path class="cls-3" d="M63.9,101.4s1.6,6.3,5.3,11.9"/>
        <path class="cls-3" d="M218.7,97.6s-1.9-4.9-5.6-8.6"/>
      </g>
    </g>
  </g>
</svg>