<?xml version="1.0" encoding="UTF-8"?>
<svg xmlns="http://www.w3.org/2000/svg" version="1.1" viewBox="0 0 447 96.7">
  <defs>
    <style>
      .cls-1, .cls-2 {
        stroke-linejoin: round;
      }

      .cls-1, .cls-2, .cls-3 {
        stroke: #ff5c1a;
        stroke-linecap: round;
      }

      .cls-1, .cls-3 {
        fill: none;
        stroke-width: 6.2px;
      }

      .cls-2 {
        stroke-width: 4.5px;
      }

      .cls-2, .cls-4 {
        fill: #ff5c1a;
      }

      .cls-3 {
        stroke-miterlimit: 10;
      }
    </style>
  </defs>
  <!-- Generator: Adobe Illustrator 28.7.3, SVG Export Plug-In . SVG Version: 1.2.0 Build 164)  -->
  <g>
    <g id="Capa_2">
      <g>
        <g>
          <path class="cls-1" d="M36.9,10c3.3-2.7,7.5-4.4,11.6-5.5"/>
          <path class="cls-1" d="M48.2,89.8c-10.9-4.1-18.4-13.4-21.6-24.1,0-.4-.4-.9-.9-.9-8,.4-16-3.6-20-10.7-.4-.9-.9-2.2-1.3-3.1-3.1-8-.4-16.9,6.2-22.3s10.2-4.5,15.6-3.1c2.7-5.8,5.8-11.6,10.7-15.6"/>
          <path class="cls-1" d="M93.5,25.6c11.7-3.3,23.3,1.9,27.6,11.1,2.9,6.4,2.1,14.4-2.2,20.5-6.4,9-16.9,8.9-17.8,8.9-2.7,12.9-14.3,21.4-26.4,25.4"/>
          <path class="cls-1" d="M73.3,5.9c9.1,3.6,16.2,10.8,20.2,19.7"/>
          <path class="cls-3" d="M89.9,34.4c-8-6.6-19.2-9.2-29.4-6.6"/>
          <path class="cls-3" d="M86.4,86.2c11.6-7.1,17.4-22.3,13.9-35.4"/>
          <path class="cls-3" d="M34.5,56.8c4,5.8,8.6,8.3,10.9,9.3,4.5,2.1,8.8,2.4,13,2.7,3.3.2,6.1.1,8,0"/>
          <path class="cls-3" d="M26.7,24.7c-1,4.4-1.2,9-.6,13.4"/>
          <polygon class="cls-2" points="60.5 27.8 60.5 22.6 52.1 29.2 60.5 35.2 60.5 27.8"/>
          <polygon class="cls-2" points="66.3 70 66.3 75.3 74.8 68.7 66.3 62.7 66.3 70"/>
          <path class="cls-1" d="M55.2,92.2s5.6,2.2,11.6,1"/>
          <path class="cls-1" d="M65,4.3s-4.1-2.1-8.5-.7"/>
          <path class="cls-1" d="M28.5,45.2s.7,2.8,2.4,5.3"/>
          <path class="cls-1" d="M97.4,43.5s-.8-2.2-2.5-3.8"/>
        </g>
        <g>
          <path class="cls-4" d="M143.9,30.9h6.3l6.3,15.5h-1.3l6.4-15.5h6.3l6.2,31.1h-7.8l-3.9-18.3h1c0,0-7.6,17.9-7.6,17.9l-7.5-17.8h1c0,0-3.9,18.3-3.9,18.3h-7.8l6.2-31.1Z"/>
          <path class="cls-4" d="M194.4,61.9h-7.8c-3.2,0-5.8-.6-7.7-1.9s-2.8-3.5-2.8-6.5v-14.6h6.8v14.9c0,.5.2,1,.5,1.3.3.3.8.6,1.5.7.6.1,1.4.2,2.3.2v-17.1h7.1v23.1Z"/>
          <path class="cls-4" d="M198.3,30.8h7v31.1h-7v-31.1Z"/>
          <path class="cls-4" d="M213.9,60c-1.2-1.3-1.8-3.3-1.8-5.8v-9.4h-3.8v-6h3.8v-5.6h7.1v5.6h4.3v6h-4.3v8.6c0,.9.2,1.5.7,1.9s1.1.6,1.9.6h2.2v6h-4.9c-2.3,0-4.1-.7-5.3-2Z"/>
          <path class="cls-4" d="M227.2,30.9h7v6h-7v-6ZM227.2,38.8h7v23.1h-7v-23.1Z"/>
          <path class="cls-4" d="M250.3,55.2h8.3c.8,0,1.5-.2,2-.7.6-.5.9-1.1.9-1.9s-.3-1.3-.8-1.7c-.5-.5-1.3-1-2.3-1.5-.3-.2-.6-.3-.9-.4-1.6-.7-2.9-1.4-4-2.2-1.1-.8-2.1-1.7-2.8-2.9s-1.1-2.5-1.1-4.1.4-3.1,1.1-4.5c.8-1.4,1.8-2.5,3-3.3,1.2-.8,2.5-1.2,3.9-1.2h10.4v6.7h-7.5c-1,0-1.8.1-2.3.4-.6.3-.9.9-.9,1.8s.1,1.1.4,1.5.6.8,1,1.1c.5.3,1.1.7,1.8,1l.5.3c1.7.8,3.1,1.6,4.2,2.4,1.1.8,2.1,1.7,2.9,3,.8,1.2,1.2,2.6,1.2,4.3s-.3,2.9-1,4.2-1.6,2.4-2.8,3.2c-1.2.8-2.6,1.2-4.2,1.2h-11v-6.7Z"/>
          <path class="cls-4" d="M276.4,60c-1.2-1.3-1.8-3.3-1.8-5.8v-9.4h-3.8v-6h3.8v-5.6h7.1v5.6h4.3v6h-4.3v8.6c0,.9.2,1.5.7,1.9s1.1.6,1.9.6h2.2v6h-4.9c-2.3,0-4.1-.7-5.3-2Z"/>
          <path class="cls-4" d="M293.9,60.7c-1.7-1-3.1-2.5-4-4.3-.9-1.8-1.4-3.8-1.4-6.1s.5-4.3,1.5-6.1c1-1.8,2.3-3.3,4.1-4.3,1.7-1,3.7-1.6,5.8-1.6s4.1.5,5.8,1.6c1.7,1.1,3.1,2.5,4.1,4.4s1.5,3.8,1.5,6-.5,4.1-1.5,5.9-2.4,3.3-4.2,4.4c-1.7,1.1-3.7,1.7-5.8,1.7s-4.2-.5-6-1.6ZM302.1,55.4c.7-.5,1.3-1.2,1.7-2.1.4-.9.6-1.8.6-2.8s-.2-1.9-.6-2.8c-.4-.9-1-1.6-1.6-2.1s-1.3-.8-2-.8-1.7.2-2.4.7c-.7.5-1.3,1.2-1.7,2-.4.9-.6,1.9-.6,3s.2,2,.6,2.9.9,1.6,1.6,2.1,1.5.8,2.3.8,1.6-.3,2.3-.8Z"/>
          <path class="cls-4" d="M317.8,60.4c-1.6-1-2.8-2.4-3.7-4.2-.9-1.7-1.3-3.7-1.3-5.8s.5-4.2,1.6-6c1-1.8,2.5-3.2,4.3-4.2,1.8-1,3.8-1.5,6-1.5h4.4v6h-3.4c-1,0-1.9.2-2.9.7-.9.4-1.7,1.1-2.3,1.9-.6.8-.9,1.8-.9,2.8s.2,2,.7,2.9c.5.9,1.1,1.6,1.9,2.1.8.5,1.7.8,2.8.8h4v6h-5.7c-2.1,0-4-.5-5.6-1.5Z"/>
          <path class="cls-4" d="M332.9,30.8h7v31.1h-7v-31.1ZM338.2,50.6l5.5-11.8h8.3l-6.4,11.6,6.5,11.6h-8.4l-5.5-11.3Z"/>
          <path class="cls-4" d="M367.1,55.2h8.3c.8,0,1.5-.2,2-.7.6-.5.9-1.1.9-1.9s-.3-1.3-.8-1.7c-.5-.5-1.3-1-2.3-1.5-.3-.2-.6-.3-.9-.4-1.6-.7-2.9-1.4-4-2.2-1.1-.8-2.1-1.7-2.8-2.9s-1.1-2.5-1.1-4.1.4-3.1,1.1-4.5c.8-1.4,1.8-2.5,3-3.3,1.2-.8,2.5-1.2,3.9-1.2h10.4v6.7h-7.5c-1,0-1.8.1-2.3.4-.6.3-.9.9-.9,1.8s.1,1.1.4,1.5.6.8,1,1.1c.5.3,1.1.7,1.8,1l.5.3c1.7.8,3.1,1.6,4.2,2.4,1.1.8,2.1,1.7,2.9,3,.8,1.2,1.2,2.6,1.2,4.3s-.3,2.9-1,4.2-1.6,2.4-2.8,3.2c-1.2.8-2.6,1.2-4.2,1.2h-11v-6.7Z"/>
          <path class="cls-4" d="M392.6,59.5c-1.4-.8-2.5-2-3.1-3.5-.7-1.5-1-3.5-1-5.8v-11.4h7.4v10.3c0,1.2,0,2.1.2,2.8.2.7.5,1.2,1.1,1.6s1.4.6,2.6.6h.8v6.5h-2.4c-2.3,0-4.1-.4-5.6-1.2ZM391.6,63.8h3.1c1.2,0,2.2,0,2.9-.2.7-.1,1.2-.5,1.7-1.1.5-.6.7-1.5.7-2.8v-20.9h6.8v20.4c0,3.5-.8,6.2-2.4,8.1s-4,2.8-7.2,2.8h-5.5v-6.4Z"/>
          <path class="cls-4" d="M410.6,38.8h7.8c3.2,0,5.8.6,7.7,1.9,1.9,1.3,2.8,3.5,2.8,6.5v14.6h-6.8v-14.9c0-.5-.2-1-.5-1.3-.3-.3-.8-.6-1.5-.7-.6-.1-1.4-.2-2.3-.2v17.1h-7.1v-23.1Z"/>
          <path class="cls-4" d="M435.7,60.4c-1.6-1-2.8-2.4-3.7-4.2-.9-1.7-1.3-3.7-1.3-5.8s.5-4.2,1.6-6c1-1.8,2.5-3.2,4.3-4.2,1.8-1,3.8-1.5,6-1.5h4.4v6h-3.4c-1,0-1.9.2-2.9.7-.9.4-1.7,1.1-2.3,1.9-.6.8-.9,1.8-.9,2.8s.2,2,.7,2.9c.5.9,1.1,1.6,1.9,2.1.8.5,1.7.8,2.8.8h4v6h-5.7c-2.1,0-4-.5-5.6-1.5Z"/>
        </g>
      </g>
    </g>
  </g>
</svg>