<?xml version="1.0" encoding="UTF-8"?>
<svg xmlns="http://www.w3.org/2000/svg" version="1.1" viewBox="0 0 323.4 218.5">
  <defs>
    <style>
      .cls-1 {
        fill: none;
        stroke: #000;
        stroke-linecap: round;
        stroke-linejoin: round;
        stroke-width: 10px;
      }
    </style>
  </defs>
  <!-- Generator: Adobe Illustrator 28.7.3, SVG Export Plug-In . SVG Version: 1.2.0 Build 164)  -->
  <g>
    <g id="Capa_3">
      <path class="cls-1" d="M54.7,50.1l42.9,8.7c14,2.9,24.7,13.2,28.7,26.1l-39.2-8c-6.8-1.4-13.5,3-14.9,9.8l-2.5,12c-1.4,6.8,3,13.5,9.8,14.9l38.6,7.9c-8.8,9.7-22.3,14.7-35.9,11.9l-46.9-9.6C14.9,119.7,1.6,99.5,5.8,79c2.1-10.3,8.2-18.7,16.3-24.1s2.1-1.3,3.1-1.9"/>
      <path class="cls-1" d="M74.4,111.3c1.5,1.2,3.3,2,5.2,2.4l-39.8-8.1c-10.3-2.1-17-12.2-14.9-22.5,1.1-5.2,4.1-9.4,8.2-12.1s9.2-3.9,14.3-2.8l45.7,9.3c1.7.4,3.4.9,4.9,1.7l-10.9-2.2c-1.6-.3-3.2-.3-4.7,0"/>
      <path class="cls-1" d="M142.5,126.5l-24.2-4.9"/>
      <line class="cls-1" x1="126.3" y1="85" x2="144.8" y2="88.7"/>
      <path class="cls-1" d="M145,88.8c-5.4,5.2-10.8,10.3-16.1,15.5,4.7,7.3,9.4,14.6,14.1,21.9"/>
      <path class="cls-1" d="M305.2,134.4c-1.4,2.5-3.8,4.5-6.8,5.3l-1.8.5"/>
      <path class="cls-1" d="M36,50.9c1.2-.8,2.7-1.1,4.2-.8l.9.2"/>
      <path class="cls-1" d="M284.6,145.2l-40.1,11.3c-13.8,3.9-28-.4-37.5-10l38.5-10.8c6.7-1.9,10.6-8.9,8.7-15.5l-3.3-11.8c-1.9-6.7-8.9-10.6-15.5-8.7l-38,10.7c3.3-12.6,13.1-23.2,26.5-27l46.1-13c20.1-5.7,41.3,6.2,46.9,26.3,2.8,10.1,1.3,20.4-3.5,28.9"/>
      <path class="cls-1" d="M241.2,99.3c-1.9-.4-3.8-.3-5.8.2l39.1-11c10.1-2.8,20.7,3.1,23.5,13.2,1.4,5.1.6,10.2-1.7,14.5-2.4,4.3-6.4,7.6-11.5,9.1l-44.9,12.6c-1.7.5-3.4.7-5.1.7l10.7-3c1.6-.4,3-1.2,4.2-2.1"/>
      <path class="cls-1" d="M173.7,117l23.8-6.7"/>
      <line class="cls-1" x1="207.1" y1="146.5" x2="188.9" y2="151.6"/>
      <path class="cls-1" d="M188.8,151.7c2.4-7,4.8-14.1,7.3-21.1-7.5-4.3-15.1-8.7-22.6-13"/>
      <line class="cls-1" x1="145.2" y1="15.5" x2="152.9" y2="39.9"/>
      <line class="cls-1" x1="185" y1="5" x2="176.4" y2="42.1"/>
      <line class="cls-1" x1="210" y1="39.7" x2="195.6" y2="54.5"/>
      <line class="cls-1" x1="183" y1="197.9" x2="176.7" y2="177.7"/>
      <line class="cls-1" x1="148.9" y1="213.5" x2="154.4" y2="175.8"/>
      <line class="cls-1" x1="119.8" y1="177.6" x2="134" y2="163.2"/>
    </g>
  </g>
</svg>