<?xml version="1.0" encoding="UTF-8"?>
<svg xmlns="http://www.w3.org/2000/svg" version="1.1" viewBox="0 0 245.3 298.5">
  <defs>
    <style>
      .cls-1, .cls-2, .cls-3, .cls-4 {
        stroke: #000;
        stroke-linecap: round;
        stroke-linejoin: round;
      }

      .cls-1, .cls-2, .cls-4 {
        fill: none;
      }

      .cls-1, .cls-3 {
        stroke-width: 10px;
      }

      .cls-2 {
        stroke-width: 8px;
      }

      .cls-3 {
        fill: #ff3b3b;
      }

      .cls-4 {
        stroke-width: 9.9px;
      }
    </style>
  </defs>
  <!-- Generator: Adobe Illustrator 28.7.3, SVG Export Plug-In . SVG Version: 1.2.0 Build 164)  -->
  <g>
    <g id="Capa_3">
      <g>
        <polyline class="cls-1" points="155.1 62.1 123.9 45.8 97.4 59.8 5.5 108.6 5 108.8 5.5 109.1 122.6 166.9 141.2 157.5"/>
        <line class="cls-1" x1="178.8" y1="74.5" x2="169.5" y2="69.6"/>
        <polyline class="cls-1" points="228.5 112.8 240.3 106.8 194.7 82.8"/>
        <line class="cls-1" x1="240.3" y1="219" x2="240.3" y2="106.8"/>
        <polyline class="cls-1" points="122.7 166.9 122.7 293.5 240.3 240.8 240.3 219"/>
        <polyline class="cls-4" points="20 247.3 5.5 240.9 5.5 109.5"/>
        <line class="cls-1" x1="41.4" y1="257.5" x2="32" y2="253.3"/>
        <polyline class="cls-1" points="123.3 243.7 123.3 293.5 55.6 263.2"/>
        <line class="cls-1" x1="123.3" y1="196.5" x2="123.3" y2="243.7"/>
        <line class="cls-1" x1="123.3" y1="166.9" x2="123.3" y2="196.5"/>
        <path class="cls-1" d="M54.4,84.8l112.6,62.4v63.6c14.5-6.8,29-13.5,43.5-20.3-.2-22.7-.3-45.5-.5-68.2l-112.6-62.4"/>
      </g>
      <circle class="cls-3" cx="206" cy="37" r="27.5"/>
      <line class="cls-2" x1="195.8" y1="26.1" x2="216.2" y2="47.9"/>
      <line class="cls-2" x1="195.1" y1="47.2" x2="216.9" y2="26.8"/>
    </g>
  </g>
</svg>